<svg xmlns="http://www.w3.org/2000/svg"
     viewBox="30 20 770 220" width="770" height="220">
  <style>
    :root {
      --color: black;
      --ortho: #F5A623;
    }
    @media (prefers-color-scheme: dark) {
      :root {
        --color: white;
      }
    }
    rect { fill: var(--ortho); fill-opacity: .15; }
    rect, path { stroke: var(--color); stroke-width: .5; }
    .unsupported { fill: none; }
    text { font-family: sans-serif; font-size: 16px; fill: var(--color); dominant-baseline: middle; text-anchor: middle; }
    .header * { font-weight: bold; }
    .layer * { text-anchor: end; }
  </style>

  <g class="header">
    <g class="service">
      <text x="220" y="40">Spotify</text>
      <text x="380" y="40">SoundCloud*</text>
      <text x="540" y="40">AirPlay</text>
      <text x="700" y="40">Bluetooth</text>
    </g>
    <g class="layer">
      <text x="120" y="80">Control</text>
      <text x="120" y="120">Transport</text>
      <text x="120" y="160">Container</text>
      <text x="120" y="200">Codec</text>
    </g>
  </g>

  <!-- Control -->
  <rect x="140" y="60" width="160" height="80"/>
  <text x="220" y="80">Spotify Connect</text>
  <rect x="300" y="60" width="160" height="40"/>
  <text x="380" y="80">WebSocket</text>
  <rect x="460" y="60" width="160" height="40"/>
  <text x="540" y="80">RTSP</text>
  <rect x="620" y="60" width="160" height="40" class="unsupported"/>
  <text x="700" y="80">AVRCP*</text>

  <!-- Transport -->
  <path d="M140,100h9m142,0h9"/>
  <text x="220" y="120">HTTPS</text>
  <rect x="300" y="100" width="160" height="40"/>
  <text x="380" y="120">HTTP</text>
  <rect x="460" y="100" width="160" height="80"/>
  <text x="540" y="120">RTP</text>
  <rect x="620" y="100" width="160" height="80"/>
  <text x="700" y="120">AVDTP</text>

  <!-- Container -->
  <rect x="140" y="140" width="80" height="40"/>
  <text x="180" y="160">Ogg</text>
  <rect x="300" y="140" width="160" height="80"/>
  <path d="M460,140h9m142,0h18m142,0h9"/>

  <!-- Codec -->
  <rect x="140" y="180" width="80" height="40"/>
  <text x="180" y="200">Vorbis</text>
  <rect x="220" y="140" width="80" height="80"/>
  <path d="M220,180h9m62,0h18m142,0h9"/>
  <text x="260" y="200">FLAC</text>
  <text x="380" y="200">MP3</text>
  <rect x="460" y="180" width="80" height="40"/>
  <text x="500" y="200">ALAC</text>
  <rect x="540" y="180" width="240" height="40"/>
  <path d="M620,180v6m0,28v6"/>
  <text x="660" y="200">AAC</text>

</svg>
