<svg xmlns="http://www.w3.org/2000/svg"
     viewBox="0 0 420 220" width="630" height="330">
  <style>
    :root {
      --color: black;
      --ortho: #F5A623;
    }
    @media (prefers-color-scheme: dark) {
      :root {
        --color: black;
      }
    }
    text { font-family: sans-serif; font-size: 14px; fill: var(--color); dominant-baseline: middle; text-anchor: middle; }
    .header text { font-weight: bold; }
    .transport text { text-anchor: start; }
    .grid { stroke: var(--color); stroke-opacity: .247; stroke-width: .2; }
    path { fill: var(--color); }
    #new path { fill: var(--ortho); }
    .new { stroke: var(--ortho); stroke-width: 2; }
  </style>

  <defs>
    <g id="soundcloud" transform="translate(-12,-12)">
      <path d="M11.56,8.87V17H20.32V17C22.17,16.87 23,15.73 23,14.33C23,12.85 21.88,11.66 20.38,11.66C20,11.66 19.68,11.74 19.35,11.88C19.11,9.54 17.12,7.71 14.67,7.71C13.5,7.71 12.39,8.15 11.56,8.87M10.68,9.89C10.38,9.71 10.06,9.57 9.71,9.5V17H11.1V9.34C10.95,9.5 10.81,9.7 10.68,9.89M8.33,9.35V17H9.25V9.38C9.06,9.35 8.87,9.34 8.67,9.34C8.55,9.34 8.44,9.34 8.33,9.35M6.5,10V17H7.41V9.54C7.08,9.65 6.77,9.81 6.5,10M4.83,12.5C4.77,12.5 4.71,12.44 4.64,12.41V17H5.56V10.86C5.19,11.34 4.94,11.91 4.83,12.5M2.79,12.22V16.91C3,16.97 3.24,17 3.5,17H3.72V12.14C3.64,12.13 3.56,12.12 3.5,12.12C3.24,12.12 3,12.16 2.79,12.22M1,14.56C1,15.31 1.34,15.97 1.87,16.42V12.71C1.34,13.15 1,13.82 1,14.56Z" />
    </g>
    <g id="spotify" transform="translate(-12,-12)">
      <path d="M17.9,10.9C14.7,9 9.35,8.8 6.3,9.75C5.8,9.9 5.3,9.6 5.15,9.15C5,8.65 5.3,8.15 5.75,8C9.3,6.95 15.15,7.15 18.85,9.35C19.3,9.6 19.45,10.2 19.2,10.65C18.95,11 18.35,11.15 17.9,10.9M17.8,13.7C17.55,14.05 17.1,14.2 16.75,13.95C14.05,12.3 9.95,11.8 6.8,12.8C6.4,12.9 5.95,12.7 5.85,12.3C5.75,11.9 5.95,11.45 6.35,11.35C10,10.25 14.5,10.8 17.6,12.7C17.9,12.85 18.05,13.35 17.8,13.7M16.6,16.45C16.4,16.75 16.05,16.85 15.75,16.65C13.4,15.2 10.45,14.9 6.95,15.7C6.6,15.8 6.3,15.55 6.2,15.25C6.1,14.9 6.35,14.6 6.65,14.5C10.45,13.65 13.75,14 16.35,15.6C16.7,15.75 16.75,16.15 16.6,16.45M12,2A10,10 0 0,0 2,12A10,10 0 0,0 12,22A10,10 0 0,0 22,12A10,10 0 0,0 12,2Z"/>
    </g>
    <g id="bluetooth" transform="translate(-12,-12)">
      <path d="M14.88,16.29L13,18.17V14.41M13,5.83L14.88,7.71L13,9.58M17.71,7.71L12,2H11V9.58L6.41,5L5,6.41L10.59,12L5,17.58L6.41,19L11,14.41V22H12L17.71,16.29L13.41,12L17.71,7.71Z" />
    </g>
    <g id="airplay" transform="translate(-12,-12)">
      <path d="M14.5 12C14.5 10.62 13.38 9.5 12 9.5C10.62 9.5 9.5 10.62 9.5 12C9.5 13 10.09 13.84 10.93 14.25L9.82 15.35C8.73 14.64 8 13.41 8 12C8 9.79 9.79 8 12 8C14.21 8 16 9.79 16 12C16 13.41 15.27 14.64 14.18 15.35L13.08 14.25C13.92 13.84 14.5 13 14.5 12M12 2C6.5 2 2 6.5 2 12C2 15.06 3.38 17.8 5.54 19.63L6.61 18.57C4.71 17 3.5 14.64 3.5 12C3.5 7.31 7.31 3.5 12 3.5C16.69 3.5 20.5 7.31 20.5 12C20.5 14.64 19.29 17 17.39 18.57L18.46 19.63C20.62 17.79 22 15.06 22 12C22 6.5 17.5 2 12 2M19 12C19 8.13 15.87 5 12 5C8.13 5 5 8.13 5 12C5 14.23 6.05 16.22 7.68 17.5L8.75 16.43C7.39 15.42 6.5 13.82 6.5 12C6.5 8.97 8.97 6.5 12 6.5C15.03 6.5 17.5 8.97 17.5 12C17.5 13.82 16.61 15.42 15.25 16.43L16.33 17.5C17.95 16.22 19 14.23 19 12M6 22H18L12 16L6 22Z" />
    </g>
    <g id="toslink" transform="translate(-12,-12)">
      <path d="M20 10V7L17 4H7L4 7V10C2.9 10 2 10.9 2 12S2.9 14 4 14V18C4 19.1 4.9 20 6 20H18C19.1 20 20 19.1 20 18V14C21.11 14 22 13.11 22 12S21.11 10 20 10M12 16C9.79 16 8 14.21 8 12S9.79 8 12 8 16 9.79 16 12 14.21 16 12 16M14 12C14 13.11 13.11 14 12 14S10 13.11 10 12 10.9 10 12 10 14 10.9 14 12Z" />
    </g>
    <g id="new" transform="translate(-12,-12)">
      <path d="M16,9V7H12V12.5C11.58,12.19 11.07,12 10.5,12A2.5,2.5 0 0,0 8,14.5A2.5,2.5 0 0,0 10.5,17A2.5,2.5 0 0,0 13,14.5V9H16M12,2A10,10 0 0,1 22,12A10,10 0 0,1 12,22A10,10 0 0,1 2,12A10,10 0 0,1 12,2Z" />
    </g>
  </defs>

  <g class="header">
    <g transform="translate(95,22)" class="codec">
      <text x="0">AAC</text>
      <text x="60">MP3</text>
      <text x="120">Vorbis</text>
      <text x="180">ALAC</text>
      <text x="240">LPCM</text>
      <text x="300">FLAC</text>
    </g>
    <g transform="translate(4,48)" class="transport">
      <text y="0">A2DP</text>
      <text y="30">HTTP</text>
      <text y="60">HTTPS</text>
      <text y="90">RTP</text>
      <text y="120">S/PDIF</text>
      <text y="150">HLS/DASH</text>
    </g>
  </g>

  <g transform="translate(95,46)">
    <path class="grid"
          d="M14,0H300 M0,30h46m28,0H300 M0,90h166m28,0H300 M0,120h226m28,0H300 M14,150H300
             M60,0v20m0,54V150 M120,0v46m0,28V150 M180,0v76m0,28V150 M240,0v106m0,28V150 M300,0v46m0,28V150" />
    <path class="new"
          d="M14,60h32m28,0h32m28,0h152
             M0,14v32m0,28v62 M60,40v6" />
    <use href="#bluetooth" x="0" y="0" />
    <use href="#soundcloud" x="60" y="30" />
    <use href="#spotify" x="120" y="60" />
    <use href="#airplay" x="180" y="90" />
    <use href="#toslink" x="240" y="120" />
    <use href="#new" x="0" y="60" />
    <use href="#new" x="60" y="60" />
    <use href="#new" x="300" y="60" />
    <use href="#new" x="0" y="150" />
  </g>

</svg>
